<?xml version="1.0" encoding="utf-8"?>
<!-- Generator: Adobe Illustrator 23.0.1, SVG Export Plug-In . SVG Version: 6.00 Build 0)  -->
<svg version="1.1" id="Layer_1" xmlns="http://www.w3.org/2000/svg" xmlns:xlink="http://www.w3.org/1999/xlink" x="0px" y="0px"
	 viewBox="0 0 360 360" style="enable-background:new 0 0 360 360;" xml:space="preserve">
<style type="text/css">
	.st0{fill:#5755D9;}
</style>
<g>
	<path class="st0" d="M5.2,24.1C-39.3,105,214.8,257.3,229.3,196.4l4.9-20.6C222.3,226-8.6,93.3,20.8,34.7
		c37-73.1,335,114,331.9,202.8c4.7-6.2,7-13.8,7.3-22.4C346.7,118.8,54.7-66,5.2,24.1z"/>
</g>
<g>
	<path class="st0" d="M48.4,149.8c1,10.2,1.3,18.2,1.8,26.8c2.9,42.4,61.4,84.3,128.1,104.4c83,24.5,150.2,6.8,171-29.7l7.8-16.1
		c-10.7,23.9-75.2,46.9-164.5,21.3C115.8,234.9,50.8,191.4,48.4,149.8"/>
</g>
<g>
	<path class="st0" d="M52.6,158.4c2.3-6.8,5.5-12.2,9.6-16.9c-3.6-3.1-7-6-10.4-9.1c-0.5,1-0.8,2.3-1.3,3.4
		C49,141.7,50,150.3,52.6,158.4z"/>
</g>
<g>
	<path class="st0" d="M226.2,153.9c-27.6-32-115.8-65.6-157-41.6c6.2,5.2,13,10.4,20,15.4c46.6-8.3,119.7,29.7,136.4,54.7
		c3.4-1.6,5.5-3.9,6.2-7l0,0C233.5,165.7,229.9,158.6,226.2,153.9z"/>
</g>
</svg>
